<?xml version="1.0" encoding="utf-8"?>
<!-- Generator: Adobe Illustrator 24.1.1, SVG Export Plug-In . SVG Version: 6.00 Build 0)  -->
<svg version="1.1" id="Layer_1" xmlns="http://www.w3.org/2000/svg" xmlns:xlink="http://www.w3.org/1999/xlink" x="0px" y="0px" fill="#fff"
	 viewBox="0 0 512 512" style="enable-background:new 0 0 512 512;" xml:space="preserve">
<g>
	<path d="M400.7,269.9c-61.5,0-111.4,49.8-111.4,111.3c0,61.6,49.9,111.4,111.4,111.4c61.4,0,111.3-49.9,111.3-111.4
		C512,319.8,462.2,269.9,400.7,269.9z M111.3,269.9C49.9,269.9,0,319.8,0,381.3c0,61.6,49.9,111.4,111.3,111.4
		c61.5,0,111.4-49.9,111.4-111.4C222.8,319.8,172.9,269.9,111.3,269.9z M367.3,130.8c0,61.5-49.8,111.3-111.3,111.3
		s-111.3-49.8-111.3-111.3c0-61.5,49.8-111.4,111.3-111.4S367.3,69.3,367.3,130.8z"/>
</g>
</svg>
