<?xml version="1.0" encoding="utf-8"?>
<!-- Generator: Adobe Illustrator 24.1.1, SVG Export Plug-In . SVG Version: 6.00 Build 0)  -->
<svg version="1.1" id="Layer_1" xmlns="http://www.w3.org/2000/svg" xmlns:xlink="http://www.w3.org/1999/xlink" x="0px" y="0px" fill="#fff"
	 viewBox="0 0 512 512" style="enable-background:new 0 0 512 512;" xml:space="preserve">
<g>
	<path d="M82.8,209.6c12.4-45.4,42.1-84.2,82.7-108.2l0.8-0.4l-38.4-66.4C69.9,68.5,27.1,123.1,9.1,187.9l-0.4,1.8L82.8,209.6z
		 M209.6,83.1c15.1-4.1,30.6-6.1,46.2-6.1h0.1V0.3h-0.4c-22.8,0-45.5,3-67.5,9l1.8-0.4L209.6,83.1z M302.5,83.1
		c45.4,12.4,84.2,42,108,82.7l0.4,0.8l66.5-38.4C443.5,70.3,389,27.4,324.1,9.5l-1.7-0.4L302.5,83.1z M0,256v0.2
		c0,23.4,3.1,46.2,9.1,67.8l-0.4-1.8l74.2-19.8c-4.1-15.1-6.2-30.6-6.1-46.2V256H0z M34.2,383.9C46,404,59.4,421.3,74.8,436.7
		l54.4-54.2c-10.8-10.8-20.3-23-28-36.2l-0.5-0.8L34.2,383.9z M127.9,477.4c38.6,22.6,82.6,34.4,127.3,34.2h0.4V435h-0.1
		c-31.7,0-62.8-8.4-90.1-24.5l0.8,0.5L127.9,477.4z M410.8,345.7c-23.6,40.6-62.2,70.3-107.3,82.9l-1.4,0.3l19.9,74.2
		c66.7-18.3,121.2-61.1,154.6-117.7l0.7-1.2L410.8,345.7z M503,324.7c5.7-20.3,9-43.4,9-67.4c0-23.2-3.1-45.6-8.8-67l0.4,1.7
		l-74.4,19.8c3.8,13.6,5.9,29.3,5.9,45.5c0,16.8-2.4,33.2-6.8,48.7l0.3-1.3L503,324.7z"/>
</g>
</svg>
