<?xml version="1.0" encoding="utf-8"?>
<!-- Generator: Adobe Illustrator 24.1.1, SVG Export Plug-In . SVG Version: 6.00 Build 0)  -->
<svg version="1.1" id="Layer_1" xmlns="http://www.w3.org/2000/svg" xmlns:xlink="http://www.w3.org/1999/xlink" x="0px" y="0px"
	 viewBox="0 0 512 512" style="enable-background:new 0 0 512 512;" xml:space="preserve" fill="#fff">
<g>
	<path d="M484,92.1c-32-32-81.1-32-113.1-2.2c-2.1,2.2-2.1,4.2-2.1,6.4c0,2.2,0,4.2,2.1,6.4l10.7,10.7c2.2,2.1,6.4,2.1,10.7,0
		c8.6-6.4,17.1-8.6,27.8-8.6c25.6,0,46.9,21.3,46.9,47c0,12.7-4.2,23.4-12.7,32c-64,64-151.6-115.3-345.7-23.5
		c-12.9,6.4-19.3,21.3-12.9,34.2v2.1l32,57.6c6.4,12.9,23.5,17.1,36.3,10.7l14.9-8.5c17.1-10.7,32-21.3,47-34.2
		c2.1-2.1,8.5-2.1,10.7,0c4.2,2.2,4.2,6.4,2.1,10.7l-2.1,2.2c-15,12.8-32,25.6-49.1,36.3l-14.9,6.4c-6.4,4.2-12.9,6.4-21.3,6.4
		c-15,0-30-8.6-36.4-21.3l-32-55.5C23.1,250-15.4,333.3,6,437.8c0,4.2,4.2,6.4,8.5,6.4h36.3c4.4,0,6.4-2.2,8.6-6.4
		c4.2-29.8,29.8-49.1,59.8-44.9c23.4,2.2,42.7,21.3,44.8,44.9c0,4.2,4.2,6.4,8.6,6.4h34.1c4.2,0,6.4-2.2,8.6-6.4
		c4.2-29.8,29.8-49.1,59.7-44.9c23.5,2.2,42.7,21.3,44.9,44.9c0,4.2,4.2,6.4,8.5,6.4h34.2c4.2,0,8.5-4.2,8.5-8.6
		c0-49,15-104.5,51.3-132.3C548,205.2,514,121.9,484,92.1L484,92.1z M351.7,239.3l-25.6-12.7c0-8.6,6.4-15,14.9-15
		c8.5,0,14.9,6.4,14.9,15C358.1,232.9,355.9,237.2,351.7,239.3z"/>
</g>
</svg>
