<?xml version="1.0" encoding="utf-8"?>
<!-- Generator: Adobe Illustrator 24.1.1, SVG Export Plug-In . SVG Version: 6.00 Build 0)  -->
<svg version="1.1" id="Layer_1" xmlns="http://www.w3.org/2000/svg" xmlns:xlink="http://www.w3.org/1999/xlink" x="0px" y="0px" fill="#fff"
	 viewBox="0 0 512 512" style="enable-background:new 0 0 512 512;" xml:space="preserve">

<g>
	<path class="st0" d="M3.1,77.8c0-4.1,0-8.2,0-12.3L4,61C9.8,28.6,37.8,7.4,68.4,7.5c86,0.2,172,0.1,258,0.1h4.2v4.3
		c0,80.5,0.1,161.1-0.1,241.6c0,11.6-0.8,23.2-1.8,34.7c-1.4,17.1-5.4,33.8-10.8,50c-15,44.8-40.4,82.5-76.3,113.2
		c-29.6,25.3-63.2,42.8-100.8,52.6c-15.4,4-31,6.9-46.9,7.4c-11.6,0.4-23.3,1.1-34.8-0.1c-25.8-2.7-46.8-21.6-53.5-46.7
		c-1.1-4.1-1.7-8.2-2.5-12.3c0-3.1,0-6.2,0-9.3c0.5-2.4,1-4.8,1.4-7.2c5.8-31.2,33.9-53.6,66.7-52.6c9.8,0.3,19.8-0.3,29.3-2.1
		c29.7-5.6,54.3-20.5,73.3-44c17.8-21.9,27.3-47.1,27.5-75.4c0.3-40.4,0.1-80.8,0.1-121.2c0-4.3,0-4.4-4.4-4.4c-41.3,0-82.7,0-124,0
		c-5.4,0-10.9-0.3-16.2-1.3C31,130,14.1,114.8,5.8,90C4.5,86,4,81.8,3.1,77.8z"/>
	<path class="st0" d="M448.7,0c4.1,0.8,8.3,1.3,12.3,2.4c18.8,5,31,17.4,38.7,34.7c5.3,11.9,8,24.5,8.7,37.5c0.4,8,0.6,16,0.6,24
		c0,110.1,0.1,220.1-0.1,330.2c0,17.6-3.1,34.9-11.7,50.7C486,499.9,469,510.6,445.5,511c-14.6,0.3-27.9-3.4-39.2-12.8
		c-10.6-8.8-16.9-20.5-21-33.4c-3.7-11.8-5.5-24-5.5-36.3c-0.1-115.5-0.2-231,0.1-346.5c0-18.7,3.6-36.9,13.6-53.3
		c10-16.4,24.4-25.9,43.7-27.8l3-0.7C442.9,0.1,445.8,0.1,448.7,0L448.7,0z"/>
	<path class="st0" d="M3.1,253.1l1.4-5.8c5.5-31.3,30-55.6,61.2-60.4c39.6-6.2,77.7,21.3,83.9,60.8c6.4,40-20.9,77.6-60.7,84.2
		c-40.1,6.7-77.9-21.1-84.4-60c-0.4-2.2-1-4.3-1.4-6.5C3,261.3,3,257.2,3.1,253.1L3.1,253.1z"/>
</g>
</svg>
